<svg width="31" height="30" viewBox="0 0 31 30" fill="none" xmlns="http://www.w3.org/2000/svg">
<path fill-rule="evenodd" clip-rule="evenodd" d="M2.375 15C2.375 18.481 3.75781 21.8194 6.21922 24.2808C8.68064 26.7422 12.019 28.125 15.5 28.125C18.981 28.125 22.3194 26.7422 24.7808 24.2808C27.2422 21.8194 28.625 18.481 28.625 15C28.625 11.519 27.2422 8.18064 24.7808 5.71922C22.3194 3.25781 18.981 1.875 15.5 1.875C12.019 1.875 8.68064 3.25781 6.21922 5.71922C3.75781 8.18064 2.375 11.519 2.375 15ZM30.5 15C30.5 18.9782 28.9196 22.7936 26.1066 25.6066C23.2936 28.4196 19.4782 30 15.5 30C11.5218 30 7.70644 28.4196 4.8934 25.6066C2.08035 22.7936 0.5 18.9782 0.5 15C0.5 11.0218 2.08035 7.20644 4.8934 4.3934C7.70644 1.58035 11.5218 0 15.5 0C19.4782 0 23.2936 1.58035 26.1066 4.3934C28.9196 7.20644 30.5 11.0218 30.5 15ZM22.0625 14.0625C22.3111 14.0625 22.5496 14.1613 22.7254 14.3371C22.9012 14.5129 23 14.7514 23 15C23 15.2486 22.9012 15.4871 22.7254 15.6629C22.5496 15.8387 22.3111 15.9375 22.0625 15.9375H11.2006L15.2262 19.9613C15.3134 20.0484 15.3826 20.1519 15.4297 20.2658C15.4769 20.3797 15.5012 20.5017 15.5012 20.625C15.5012 20.7483 15.4769 20.8703 15.4297 20.9842C15.3826 21.0981 15.3134 21.2016 15.2262 21.2887C15.1391 21.3759 15.0356 21.4451 14.9217 21.4922C14.8078 21.5394 14.6858 21.5637 14.5625 21.5637C14.4392 21.5637 14.3172 21.5394 14.2033 21.4922C14.0894 21.4451 13.9859 21.3759 13.8988 21.2887L8.27375 15.6637C8.18644 15.5767 8.11718 15.4732 8.06991 15.3593C8.02265 15.2454 7.99832 15.1233 7.99832 15C7.99832 14.8767 8.02265 14.7546 8.06991 14.6407C8.11718 14.5268 8.18644 14.4233 8.27375 14.3363L13.8988 8.71125C14.0748 8.53521 14.3135 8.43632 14.5625 8.43632C14.8115 8.43632 15.0502 8.53521 15.2262 8.71125C15.4023 8.88729 15.5012 9.12605 15.5012 9.375C15.5012 9.62395 15.4023 9.86271 15.2262 10.0387L11.2006 14.0625H22.0625Z" fill="white"/>
</svg>
