<svg width="40" height="41" viewBox="0 0 40 41" fill="none" xmlns="http://www.w3.org/2000/svg">
<path d="M35 0.5C36.3261 0.5 37.5979 1.02678 38.5355 1.96447C39.4732 2.90215 40 4.17392 40 5.5V35.5C40 36.8261 39.4732 38.0979 38.5355 39.0355C37.5979 39.9732 36.3261 40.5 35 40.5H5C3.67392 40.5 2.40215 39.9732 1.46447 39.0355C0.526784 38.0979 0 36.8261 0 35.5V5.5C0 4.17392 0.526784 2.90215 1.46447 1.96447C2.40215 1.02678 3.67392 0.5 5 0.5L35 0.5ZM14.76 27.5075L25 17.2675V24.1875C25 24.519 25.1317 24.837 25.3661 25.0714C25.6005 25.3058 25.9185 25.4375 26.25 25.4375C26.5815 25.4375 26.8995 25.3058 27.1339 25.0714C27.3683 24.837 27.5 24.519 27.5 24.1875V14.25C27.5 13.9185 27.3683 13.6005 27.1339 13.3661C26.8995 13.1317 26.5815 13 26.25 13H16.3125C15.981 13 15.663 13.1317 15.4286 13.3661C15.1942 13.6005 15.0625 13.9185 15.0625 14.25C15.0625 14.5815 15.1942 14.8995 15.4286 15.1339C15.663 15.3683 15.981 15.5 16.3125 15.5H23.2325L12.9925 25.74C12.7648 25.9758 12.6388 26.2915 12.6417 26.6193C12.6445 26.947 12.776 27.2605 13.0077 27.4923C13.2395 27.724 13.553 27.8555 13.8807 27.8583C14.2085 27.8612 14.5242 27.7352 14.76 27.5075Z" fill="#FF8702"/>
</svg>
