<svg width="40" height="40" viewBox="0 0 40 40" fill="none" xmlns="http://www.w3.org/2000/svg">
<path d="M36.6673 12.5H23.334V20H36.6673V12.5Z" fill="#21A366"/>
<path d="M36.6667 20H10V33.3333C10 34.2542 10.7458 35 11.6667 35H35C35.9208 35 36.6667 34.2542 36.6667 33.3333V20Z" fill="#185C37"/>
<path d="M36.6673 20H23.334V27.5H36.6673V20Z" fill="#107C42"/>
<path d="M23.3333 12.5H10V20H23.3333V12.5Z" fill="#3FA071"/>
<path d="M35.0007 5H23.334V12.5H36.6673V6.66667C36.6673 5.74583 35.9215 5 35.0007 5Z" fill="#33C481"/>
<path d="M11.6667 5H23.3333V12.5H10V6.66667C10 5.74583 10.7458 5 11.6667 5Z" fill="#21A366"/>
<path opacity="0.05" d="M18.5992 10.834H10V30.834H18.5992C20.2933 30.834 21.6667 29.4607 21.6667 27.7665V13.9015C21.6667 12.2073 20.2933 10.834 18.5992 10.834Z" fill="black"/>
<path opacity="0.07" d="M18.5108 30.0005H10V11.1113H18.5108C19.9475 11.1113 21.1117 12.2755 21.1117 13.7122V27.3997C21.1108 28.8363 19.9467 30.0005 18.5108 30.0005Z" fill="black"/>
<path opacity="0.09" d="M18.4217 29.1662H10V11.3887H18.4217C19.6 11.3887 20.555 12.3437 20.555 13.522V27.0328C20.5558 28.2112 19.6 29.1662 18.4217 29.1662Z" fill="black"/>
<path d="M18.334 28.3327H5.00065C4.07982 28.3327 3.33398 27.5868 3.33398 26.666V13.3327C3.33398 12.4118 4.07982 11.666 5.00065 11.666H18.334C19.2548 11.666 20.0007 12.4118 20.0007 13.3327V26.666C20.0007 27.5868 19.2548 28.3327 18.334 28.3327Z" fill="url(#paint0_linear_3785_1457)"/>
<path d="M8.17167 15.834H10.16L11.7733 18.9623L13.4783 15.834H15.3358L12.7767 20.0007L15.3942 24.1673H13.435L11.6767 20.8923L9.92583 24.1673H7.9375L10.5983 19.9857L8.17167 15.834Z" fill="white"/>
<defs>
<linearGradient id="paint0_linear_3785_1457" x1="3.93815" y1="12.2702" x2="19.2132" y2="27.5452" gradientUnits="userSpaceOnUse">
<stop stop-color="#18884F"/>
<stop offset="1" stop-color="#0B6731"/>
</linearGradient>
</defs>
</svg>
