<svg width="41" height="41" viewBox="0 0 41 41" fill="none" xmlns="http://www.w3.org/2000/svg">
<g clip-path="url(#clip0_3122_8438)">
<path d="M35.5 0.5C36.8261 0.5 38.0979 1.02678 39.0355 1.96447C39.9732 2.90215 40.5 4.17392 40.5 5.5V35.5C40.5 36.8261 39.9732 38.0979 39.0355 39.0355C38.0979 39.9732 36.8261 40.5 35.5 40.5H5.5C4.17392 40.5 2.90215 39.9732 1.96447 39.0355C1.02678 38.0979 0.5 36.8261 0.5 35.5V5.5C0.5 4.17392 1.02678 2.90215 1.96447 1.96447C2.90215 1.02678 4.17392 0.5 5.5 0.5L35.5 0.5ZM15.26 27.5075L25.5 17.2675V24.1875C25.5 24.519 25.6317 24.837 25.8661 25.0714C26.1005 25.3058 26.4185 25.4375 26.75 25.4375C27.0815 25.4375 27.3995 25.3058 27.6339 25.0714C27.8683 24.837 28 24.519 28 24.1875V14.25C28 13.9185 27.8683 13.6005 27.6339 13.3661C27.3995 13.1317 27.0815 13 26.75 13H16.8125C16.481 13 16.163 13.1317 15.9286 13.3661C15.6942 13.6005 15.5625 13.9185 15.5625 14.25C15.5625 14.5815 15.6942 14.8995 15.9286 15.1339C16.163 15.3683 16.481 15.5 16.8125 15.5H23.7325L13.4925 25.74C13.2648 25.9758 13.1388 26.2915 13.1417 26.6193C13.1445 26.947 13.276 27.2605 13.5077 27.4923C13.7395 27.724 14.053 27.8555 14.3807 27.8583C14.7085 27.8612 15.0242 27.7352 15.26 27.5075Z" fill="#FF8702"/>
</g>
<defs>
<clipPath id="clip0_3122_8438">
<rect width="40" height="40" fill="white" transform="translate(0.5 0.5)"/>
</clipPath>
</defs>
</svg>
