<svg width="41" height="41" viewBox="0 0 41 41" fill="none" xmlns="http://www.w3.org/2000/svg">
<path d="M39.0043 5.35001C39.2379 5.58431 39.369 5.90166 39.369 6.23251C39.369 6.56335 39.2379 6.8807 39.0043 7.11501L36.3968 9.72501L31.3968 4.72501L34.0043 2.11501C34.2387 1.88067 34.5566 1.74902 34.888 1.74902C35.2195 1.74902 35.5374 1.88067 35.7718 2.11501L39.0043 5.34751V5.35001ZM34.6293 11.49L29.6293 6.49001L12.5968 23.525C12.4592 23.6626 12.3556 23.8304 12.2943 24.015L10.2818 30.05C10.2453 30.16 10.2401 30.278 10.2668 30.3908C10.2935 30.5036 10.3511 30.6068 10.4331 30.6887C10.515 30.7707 10.6182 30.8283 10.731 30.855C10.8438 30.8817 10.9618 30.8765 11.0718 30.84L17.1068 28.8275C17.2912 28.7669 17.459 28.6642 17.5968 28.5275L34.6293 11.49Z" fill="#EC6B0C"/>
<path fill-rule="evenodd" clip-rule="evenodd" d="M2.75 34.25C2.75 35.2446 3.14509 36.1984 3.84835 36.9016C4.55161 37.6049 5.50544 38 6.5 38H34C34.9946 38 35.9484 37.6049 36.6516 36.9016C37.3549 36.1984 37.75 35.2446 37.75 34.25V19.25C37.75 18.9185 37.6183 18.6005 37.3839 18.3661C37.1495 18.1317 36.8315 18 36.5 18C36.1685 18 35.8505 18.1317 35.6161 18.3661C35.3817 18.6005 35.25 18.9185 35.25 19.25V34.25C35.25 34.5815 35.1183 34.8995 34.8839 35.1339C34.6495 35.3683 34.3315 35.5 34 35.5H6.5C6.16848 35.5 5.85054 35.3683 5.61612 35.1339C5.3817 34.8995 5.25 34.5815 5.25 34.25V6.75C5.25 6.41848 5.3817 6.10054 5.61612 5.86612C5.85054 5.6317 6.16848 5.5 6.5 5.5H22.75C23.0815 5.5 23.3995 5.3683 23.6339 5.13388C23.8683 4.89946 24 4.58152 24 4.25C24 3.91848 23.8683 3.60054 23.6339 3.36612C23.3995 3.1317 23.0815 3 22.75 3H6.5C5.50544 3 4.55161 3.39509 3.84835 4.09835C3.14509 4.80161 2.75 5.75544 2.75 6.75V34.25Z" fill="#EC6B0C"/>
</svg>
