<svg width="60" height="61" viewBox="0 0 60 61" fill="none" xmlns="http://www.w3.org/2000/svg">
<g clip-path="url(#clip0_2835_2192)">
<path d="M26.2503 9.875C26.2503 12.3614 25.2626 14.746 23.5044 16.5041C21.7463 18.2623 19.3617 19.25 16.8753 19.25C14.3889 19.25 12.0043 18.2623 10.2462 16.5041C8.48803 14.746 7.50031 12.3614 7.50031 9.875C7.50031 7.3886 8.48803 5.00403 10.2462 3.24587C12.0043 1.48772 14.3889 0.5 16.8753 0.5C19.3617 0.5 21.7463 1.48772 23.5044 3.24587C25.2626 5.00403 26.2503 7.3886 26.2503 9.875ZM42.0941 25.0737C41.7424 24.8976 41.3442 24.8365 40.9559 24.8991C40.5676 24.9617 40.2088 25.1448 39.9303 25.4225L26.0178 43.085L16.0428 32.69C15.6827 32.4502 15.2507 32.3424 14.8201 32.3848C14.3895 32.4271 13.9868 32.6171 13.6803 32.9225L0.0078125 49.25V56.75C0.0078125 57.7446 0.402901 58.6984 1.10616 59.4016C1.80942 60.1049 2.76325 60.5 3.75781 60.5H56.2578C56.7503 60.5 57.2379 60.403 57.6929 60.2146C58.1478 60.0261 58.5612 59.7499 58.9095 59.4016C59.2577 59.0534 59.5339 58.64 59.7224 58.1851C59.9108 57.7301 60.0078 57.2425 60.0078 56.75V39.875L42.0941 25.0737Z" fill="#EC6B0C"/>
</g>
<defs>
<clipPath id="clip0_2835_2192">
<rect width="60" height="60" fill="white" transform="translate(0 0.5)"/>
</clipPath>
</defs>
</svg>


