<svg width="41" height="41" viewBox="0 0 41 41" fill="none" xmlns="http://www.w3.org/2000/svg">
<g clip-path="url(#clip0_3478_1335)">
<path d="M6.5 3C5.83696 3 5.20107 3.26339 4.73223 3.73223C4.26339 4.20107 4 4.83696 4 5.5V8C4 8.66304 4.26339 9.29893 4.73223 9.76777C5.20107 10.2366 5.83696 10.5 6.5 10.5H7.75V33C7.75 34.3261 8.27678 35.5979 9.21447 36.5355C10.1521 37.4732 11.4239 38 12.75 38H27.75C29.0761 38 30.3479 37.4732 31.2855 36.5355C32.2232 35.5979 32.75 34.3261 32.75 33V10.5H34C34.663 10.5 35.2989 10.2366 35.7678 9.76777C36.2366 9.29893 36.5 8.66304 36.5 8V5.5C36.5 4.83696 36.2366 4.20107 35.7678 3.73223C35.2989 3.26339 34.663 3 34 3H25.25C25.25 2.33696 24.9866 1.70107 24.5178 1.23223C24.0489 0.763392 23.413 0.5 22.75 0.5L17.75 0.5C17.087 0.5 16.4511 0.763392 15.9822 1.23223C15.5134 1.70107 15.25 2.33696 15.25 3H6.5ZM14 13C14.3315 13 14.6495 13.1317 14.8839 13.3661C15.1183 13.6005 15.25 13.9185 15.25 14.25V31.75C15.25 32.0815 15.1183 32.3995 14.8839 32.6339C14.6495 32.8683 14.3315 33 14 33C13.6685 33 13.3505 32.8683 13.1161 32.6339C12.8817 32.3995 12.75 32.0815 12.75 31.75V14.25C12.75 13.9185 12.8817 13.6005 13.1161 13.3661C13.3505 13.1317 13.6685 13 14 13ZM20.25 13C20.5815 13 20.8995 13.1317 21.1339 13.3661C21.3683 13.6005 21.5 13.9185 21.5 14.25V31.75C21.5 32.0815 21.3683 32.3995 21.1339 32.6339C20.8995 32.8683 20.5815 33 20.25 33C19.9185 33 19.6005 32.8683 19.3661 32.6339C19.1317 32.3995 19 32.0815 19 31.75V14.25C19 13.9185 19.1317 13.6005 19.3661 13.3661C19.6005 13.1317 19.9185 13 20.25 13ZM27.75 14.25V31.75C27.75 32.0815 27.6183 32.3995 27.3839 32.6339C27.1495 32.8683 26.8315 33 26.5 33C26.1685 33 25.8505 32.8683 25.6161 32.6339C25.3817 32.3995 25.25 32.0815 25.25 31.75V14.25C25.25 13.9185 25.3817 13.6005 25.6161 13.3661C25.8505 13.1317 26.1685 13 26.5 13C26.8315 13 27.1495 13.1317 27.3839 13.3661C27.6183 13.6005 27.75 13.9185 27.75 14.25Z" fill="#590100"/>
</g>
<defs>
<clipPath id="clip0_3478_1335">
<rect width="40" height="40" fill="white" transform="translate(0.25 0.5)"/>
</clipPath>
</defs>
</svg>
