<svg width="20" height="21" viewBox="0 0 20 21" fill="none" xmlns="http://www.w3.org/2000/svg">
<g clip-path="url(#clip0_2835_2226)">
<path d="M3.125 1.75C2.79348 1.75 2.47554 1.8817 2.24112 2.11612C2.0067 2.35054 1.875 2.66848 1.875 3V4.25C1.875 4.58152 2.0067 4.89946 2.24112 5.13388C2.47554 5.3683 2.79348 5.5 3.125 5.5H3.75V16.75C3.75 17.413 4.01339 18.0489 4.48223 18.5178C4.95107 18.9866 5.58696 19.25 6.25 19.25H13.75C14.413 19.25 15.0489 18.9866 15.5178 18.5178C15.9866 18.0489 16.25 17.413 16.25 16.75V5.5H16.875C17.2065 5.5 17.5245 5.3683 17.7589 5.13388C17.9933 4.89946 18.125 4.58152 18.125 4.25V3C18.125 2.66848 17.9933 2.35054 17.7589 2.11612C17.5245 1.8817 17.2065 1.75 16.875 1.75H12.5C12.5 1.41848 12.3683 1.10054 12.1339 0.866117C11.8995 0.631696 11.5815 0.5 11.25 0.5H8.75C8.41848 0.5 8.10054 0.631696 7.86612 0.866117C7.6317 1.10054 7.5 1.41848 7.5 1.75H3.125ZM6.875 6.75C7.04076 6.75 7.19973 6.81585 7.31694 6.93306C7.43415 7.05027 7.5 7.20924 7.5 7.375V16.125C7.5 16.2908 7.43415 16.4497 7.31694 16.5669C7.19973 16.6842 7.04076 16.75 6.875 16.75C6.70924 16.75 6.55027 16.6842 6.43306 16.5669C6.31585 16.4497 6.25 16.2908 6.25 16.125V7.375C6.25 7.20924 6.31585 7.05027 6.43306 6.93306C6.55027 6.81585 6.70924 6.75 6.875 6.75ZM10 6.75C10.1658 6.75 10.3247 6.81585 10.4419 6.93306C10.5592 7.05027 10.625 7.20924 10.625 7.375V16.125C10.625 16.2908 10.5592 16.4497 10.4419 16.5669C10.3247 16.6842 10.1658 16.75 10 16.75C9.83424 16.75 9.67527 16.6842 9.55806 16.5669C9.44085 16.4497 9.375 16.2908 9.375 16.125V7.375C9.375 7.20924 9.44085 7.05027 9.55806 6.93306C9.67527 6.81585 9.83424 6.75 10 6.75ZM13.75 7.375V16.125C13.75 16.2908 13.6842 16.4497 13.5669 16.5669C13.4497 16.6842 13.2908 16.75 13.125 16.75C12.9592 16.75 12.8003 16.6842 12.6831 16.5669C12.5658 16.4497 12.5 16.2908 12.5 16.125V7.375C12.5 7.20924 12.5658 7.05027 12.6831 6.93306C12.8003 6.81585 12.9592 6.75 13.125 6.75C13.2908 6.75 13.4497 6.81585 13.5669 6.93306C13.6842 7.05027 13.75 7.20924 13.75 7.375Z" fill="#DC3545"/>
</g>
<defs>
<clipPath id="clip0_2835_2226">
<rect width="20" height="20" fill="white" transform="translate(0 0.5)"/>
</clipPath>
</defs>
</svg>
