<svg width="1550" height="72" viewBox="0 0 1550 72" fill="none" xmlns="http://www.w3.org/2000/svg">
<rect x="0.5" y="0.5" width="1549" height="71" rx="15.5" fill="white"/>
<rect x="0.5" y="0.5" width="1549" height="71" rx="15.5" stroke="#030303"/>
<path d="M626.667 28.5H613.334V36H626.667V28.5Z" fill="#21A366"/>
<path d="M626.667 36H600V49.3333C600 50.2542 600.746 51 601.667 51H625C625.921 51 626.667 50.2542 626.667 49.3333V36Z" fill="#185C37"/>
<path d="M626.667 36H613.334V43.5H626.667V36Z" fill="#107C42"/>
<path d="M613.333 28.5H600V36H613.333V28.5Z" fill="#3FA071"/>
<path d="M625.001 21H613.334V28.5H626.667V22.6667C626.667 21.7458 625.921 21 625.001 21Z" fill="#33C481"/>
<path d="M601.667 21H613.333V28.5H600V22.6667C600 21.7458 600.746 21 601.667 21Z" fill="#21A366"/>
<path opacity="0.05" d="M608.599 26.834H600V46.834H608.599C610.293 46.834 611.667 45.4607 611.667 43.7665V29.9015C611.667 28.2073 610.293 26.834 608.599 26.834Z" fill="black"/>
<path opacity="0.07" d="M608.511 46.0005H600V27.1113H608.511C609.947 27.1113 611.112 28.2755 611.112 29.7122V43.3997C611.111 44.8363 609.947 46.0005 608.511 46.0005Z" fill="black"/>
<path opacity="0.09" d="M608.422 45.1662H600V27.3887H608.422C609.6 27.3887 610.555 28.3437 610.555 29.522V43.0328C610.556 44.2112 609.6 45.1662 608.422 45.1662Z" fill="black"/>
<path d="M608.334 44.3327H595.001C594.08 44.3327 593.334 43.5868 593.334 42.666V29.3327C593.334 28.4118 594.08 27.666 595.001 27.666H608.334C609.255 27.666 610.001 28.4118 610.001 29.3327V42.666C610.001 43.5868 609.255 44.3327 608.334 44.3327Z" fill="url(#paint0_linear_3092_8140)"/>
<path d="M598.172 31.834H600.16L601.773 34.9623L603.478 31.834H605.336L602.777 36.0007L605.394 40.1673H603.435L601.677 36.8923L599.926 40.1673H597.938L600.598 35.9857L598.172 31.834Z" fill="white"/>
<path d="M653.491 44.5H649.695L649.719 42.0708H653.491C654.59 42.0708 655.509 41.8307 656.25 41.3506C656.999 40.8704 657.56 40.1828 657.935 39.2876C658.317 38.3924 658.508 37.3263 658.508 36.0894V35.125C658.508 34.1647 658.398 33.3143 658.179 32.5737C657.967 31.8332 657.65 31.2106 657.227 30.7061C656.812 30.2015 656.299 29.819 655.688 29.5586C655.086 29.2982 654.39 29.168 653.601 29.168H649.622V26.7266H653.601C654.781 26.7266 655.859 26.9259 656.836 27.3247C657.812 27.7153 658.655 28.2809 659.363 29.0215C660.079 29.762 660.628 30.6491 661.011 31.6826C661.393 32.7161 661.584 33.8717 661.584 35.1494V36.0894C661.584 37.367 661.393 38.5226 661.011 39.5562C660.628 40.5897 660.079 41.4767 659.363 42.2173C658.647 42.9497 657.792 43.5153 656.799 43.9141C655.815 44.3047 654.712 44.5 653.491 44.5ZM651.392 26.7266V44.5H648.328V26.7266H651.392ZM670.19 44.7441C669.214 44.7441 668.331 44.5854 667.542 44.2681C666.76 43.9425 666.093 43.4909 665.54 42.9131C664.994 42.3353 664.575 41.6558 664.282 40.8745C663.989 40.0933 663.843 39.251 663.843 38.3477V37.8594C663.843 36.8258 663.993 35.89 664.294 35.0518C664.596 34.2135 665.015 33.4974 665.552 32.9033C666.089 32.3011 666.724 31.8413 667.456 31.5239C668.188 31.2065 668.982 31.0479 669.836 31.0479C670.78 31.0479 671.606 31.2065 672.314 31.5239C673.022 31.8413 673.608 32.2889 674.072 32.8667C674.544 33.4364 674.894 34.1159 675.122 34.9053C675.358 35.6947 675.476 36.5654 675.476 37.5176V38.7749H665.271V36.6631H672.571V36.4312C672.555 35.9022 672.449 35.4058 672.253 34.9419C672.066 34.478 671.777 34.1037 671.387 33.8188C670.996 33.534 670.475 33.3916 669.824 33.3916C669.336 33.3916 668.901 33.4974 668.518 33.709C668.144 33.9124 667.83 34.2095 667.578 34.6001C667.326 34.9907 667.131 35.4627 666.992 36.0161C666.862 36.5614 666.797 37.1758 666.797 37.8594V38.3477C666.797 38.9255 666.874 39.4626 667.029 39.959C667.192 40.4473 667.428 40.8745 667.737 41.2407C668.046 41.6069 668.42 41.8958 668.86 42.1074C669.299 42.3109 669.8 42.4126 670.361 42.4126C671.069 42.4126 671.7 42.2702 672.253 41.9854C672.807 41.7005 673.287 41.2977 673.694 40.7769L675.244 42.2783C674.959 42.6934 674.589 43.0921 674.133 43.4746C673.678 43.849 673.12 44.1541 672.461 44.3901C671.81 44.6261 671.053 44.7441 670.19 44.7441ZM685.181 40.9233C685.181 40.6304 685.107 40.3659 684.961 40.1299C684.814 39.8857 684.534 39.666 684.119 39.4707C683.712 39.2754 683.11 39.0964 682.312 38.9336C681.612 38.779 680.969 38.5959 680.383 38.3843C679.806 38.1646 679.309 37.9001 678.894 37.5908C678.479 37.2816 678.158 36.9154 677.93 36.4922C677.702 36.069 677.588 35.5807 677.588 35.0273C677.588 34.4902 677.706 33.9816 677.942 33.5015C678.178 33.0213 678.516 32.5981 678.955 32.2319C679.395 31.8657 679.928 31.5768 680.554 31.3652C681.189 31.1536 681.897 31.0479 682.678 31.0479C683.785 31.0479 684.733 31.235 685.522 31.6094C686.32 31.9756 686.93 32.4761 687.354 33.1108C687.777 33.7375 687.988 34.4455 687.988 35.2349H685.046C685.046 34.8849 684.957 34.5594 684.778 34.2583C684.607 33.9491 684.347 33.7008 683.997 33.5137C683.647 33.3184 683.207 33.2207 682.678 33.2207C682.174 33.2207 681.755 33.3021 681.421 33.4648C681.095 33.6195 680.851 33.8229 680.688 34.0752C680.534 34.3275 680.457 34.6042 680.457 34.9053C680.457 35.125 680.497 35.3244 680.579 35.5034C680.668 35.6743 680.815 35.833 681.018 35.9795C681.222 36.1178 681.498 36.248 681.848 36.3701C682.206 36.4922 682.654 36.6102 683.191 36.7241C684.2 36.9357 685.067 37.2083 685.791 37.542C686.523 37.8675 687.085 38.2907 687.476 38.8115C687.866 39.3242 688.062 39.9753 688.062 40.7646C688.062 41.3506 687.935 41.8877 687.683 42.376C687.439 42.8561 687.081 43.2752 686.609 43.6333C686.137 43.9832 685.571 44.2559 684.912 44.4512C684.261 44.6465 683.529 44.7441 682.715 44.7441C681.519 44.7441 680.505 44.5326 679.675 44.1094C678.845 43.6781 678.215 43.1287 677.783 42.4614C677.36 41.786 677.148 41.0861 677.148 40.3618H679.993C680.025 40.9071 680.176 41.3424 680.444 41.668C680.721 41.9854 681.063 42.2173 681.47 42.3638C681.885 42.5021 682.312 42.5713 682.751 42.5713C683.28 42.5713 683.724 42.5021 684.082 42.3638C684.44 42.2173 684.713 42.022 684.9 41.7778C685.087 41.5256 685.181 41.2407 685.181 40.9233ZM696.033 42.4004C696.513 42.4004 696.944 42.3068 697.327 42.1196C697.717 41.9243 698.031 41.6558 698.267 41.314C698.511 40.9722 698.645 40.5775 698.669 40.1299H701.44C701.424 40.9844 701.172 41.7616 700.684 42.4614C700.195 43.1613 699.548 43.7188 698.743 44.1338C697.937 44.5407 697.046 44.7441 696.069 44.7441C695.06 44.7441 694.181 44.5732 693.433 44.2314C692.684 43.8815 692.061 43.4014 691.565 42.791C691.069 42.1807 690.694 41.4767 690.442 40.6792C690.198 39.8817 690.076 39.0272 690.076 38.1157V37.6885C690.076 36.777 690.198 35.9225 690.442 35.125C690.694 34.3193 691.069 33.6113 691.565 33.001C692.061 32.3906 692.684 31.9146 693.433 31.5728C694.181 31.2228 695.056 31.0479 696.057 31.0479C697.115 31.0479 698.043 31.2594 698.84 31.6826C699.638 32.0977 700.264 32.6795 700.72 33.4282C701.184 34.1688 701.424 35.0314 701.44 36.0161H698.669C698.645 35.5278 698.523 35.0884 698.303 34.6978C698.092 34.299 697.791 33.9816 697.4 33.7456C697.017 33.5096 696.558 33.3916 696.021 33.3916C695.426 33.3916 694.934 33.5137 694.543 33.7578C694.153 33.9938 693.848 34.3193 693.628 34.7344C693.408 35.1413 693.25 35.6011 693.152 36.1138C693.062 36.6183 693.018 37.1432 693.018 37.6885V38.1157C693.018 38.661 693.062 39.1899 693.152 39.7026C693.241 40.2153 693.396 40.6751 693.616 41.082C693.844 41.4808 694.153 41.8022 694.543 42.0464C694.934 42.2824 695.431 42.4004 696.033 42.4004ZM711.145 41.8511V35.5522C711.145 35.0802 711.06 34.6733 710.889 34.3315C710.718 33.9897 710.457 33.7253 710.107 33.5381C709.766 33.3509 709.334 33.2573 708.813 33.2573C708.333 33.2573 707.918 33.3387 707.568 33.5015C707.218 33.6642 706.946 33.884 706.75 34.1606C706.555 34.4373 706.458 34.7507 706.458 35.1006H703.528C703.528 34.5798 703.654 34.0752 703.906 33.5869C704.159 33.0986 704.525 32.6632 705.005 32.2808C705.485 31.8983 706.059 31.5972 706.726 31.3774C707.393 31.1577 708.142 31.0479 708.972 31.0479C709.965 31.0479 710.844 31.2147 711.609 31.5483C712.382 31.882 712.988 32.3866 713.428 33.062C713.875 33.7293 714.099 34.5675 714.099 35.5767V41.4482C714.099 42.0505 714.14 42.5916 714.221 43.0718C714.311 43.5438 714.437 43.9548 714.6 44.3047V44.5H711.584C711.446 44.1826 711.336 43.7798 711.255 43.2915C711.182 42.7951 711.145 42.3149 711.145 41.8511ZM711.572 36.4678L711.597 38.2866H709.485C708.94 38.2866 708.459 38.3395 708.044 38.4453C707.629 38.543 707.284 38.6895 707.007 38.8848C706.73 39.0801 706.523 39.3161 706.384 39.5928C706.246 39.8695 706.177 40.1828 706.177 40.5327C706.177 40.8826 706.258 41.2041 706.421 41.4971C706.584 41.7819 706.82 42.0057 707.129 42.1685C707.446 42.3312 707.829 42.4126 708.276 42.4126C708.879 42.4126 709.403 42.2905 709.851 42.0464C710.307 41.7941 710.665 41.4889 710.925 41.1309C711.186 40.7646 711.324 40.4188 711.34 40.0933L712.292 41.3994C712.195 41.7331 712.028 42.0911 711.792 42.4736C711.556 42.8561 711.247 43.2223 710.864 43.5723C710.49 43.9141 710.038 44.1948 709.509 44.4146C708.988 44.6343 708.386 44.7441 707.703 44.7441C706.84 44.7441 706.071 44.5732 705.396 44.2314C704.72 43.8815 704.191 43.4136 703.809 42.8276C703.426 42.2336 703.235 41.5622 703.235 40.8135C703.235 40.1136 703.365 39.4951 703.625 38.958C703.894 38.4128 704.285 37.957 704.797 37.5908C705.318 37.2246 705.953 36.9479 706.702 36.7607C707.45 36.5654 708.305 36.4678 709.265 36.4678H711.572ZM720.129 33.8066V44.5H717.188V31.292H719.995L720.129 33.8066ZM724.17 31.2065L724.146 33.9409C723.966 33.9084 723.771 33.884 723.56 33.8677C723.356 33.8514 723.153 33.8433 722.949 33.8433C722.445 33.8433 722.001 33.9165 721.619 34.063C721.236 34.2013 720.915 34.4048 720.654 34.6733C720.402 34.9338 720.207 35.2511 720.068 35.6255C719.93 35.9998 719.849 36.4189 719.824 36.8828L719.153 36.9316C719.153 36.1016 719.234 35.3325 719.397 34.6245C719.56 33.9165 719.804 33.2939 720.129 32.7568C720.463 32.2197 720.878 31.8006 721.375 31.4995C721.879 31.1984 722.461 31.0479 723.12 31.0479C723.299 31.0479 723.49 31.0641 723.694 31.0967C723.905 31.1292 724.064 31.1659 724.17 31.2065ZM734.229 31.292H736.902V44.1338C736.902 45.3219 736.65 46.3311 736.145 47.1611C735.64 47.9912 734.937 48.6219 734.033 49.0532C733.13 49.4927 732.084 49.7124 730.896 49.7124C730.391 49.7124 729.83 49.6392 729.211 49.4927C728.601 49.3462 728.007 49.1102 727.429 48.7847C726.86 48.4673 726.383 48.0482 726.001 47.5273L727.38 45.7939C727.852 46.3555 728.373 46.7664 728.943 47.0269C729.513 47.2873 730.111 47.4175 730.737 47.4175C731.413 47.4175 731.986 47.2913 732.458 47.0391C732.939 46.7949 733.309 46.4328 733.569 45.9526C733.83 45.4725 733.96 44.8866 733.96 44.1948V34.2827L734.229 31.292ZM725.256 38.0425V37.7861C725.256 36.7852 725.378 35.8737 725.623 35.0518C725.867 34.2217 726.217 33.5096 726.672 32.9155C727.128 32.3133 727.681 31.8535 728.333 31.5361C728.984 31.2106 729.72 31.0479 730.542 31.0479C731.396 31.0479 732.125 31.2025 732.727 31.5117C733.337 31.821 733.846 32.2645 734.253 32.8423C734.66 33.4119 734.977 34.0955 735.205 34.8931C735.441 35.6825 735.616 36.5614 735.73 37.5298V38.3477C735.624 39.2917 735.445 40.1543 735.193 40.9355C734.941 41.7168 734.607 42.3923 734.192 42.9619C733.777 43.5316 733.264 43.971 732.654 44.2803C732.052 44.5895 731.34 44.7441 730.518 44.7441C729.712 44.7441 728.984 44.5773 728.333 44.2437C727.69 43.91 727.136 43.4421 726.672 42.8398C726.217 42.2376 725.867 41.5296 725.623 40.7158C725.378 39.8939 725.256 39.0028 725.256 38.0425ZM728.198 37.7861V38.0425C728.198 38.6447 728.255 39.2062 728.369 39.7271C728.491 40.2479 728.674 40.7077 728.918 41.1064C729.171 41.4971 729.488 41.8063 729.871 42.0342C730.261 42.2539 730.721 42.3638 731.25 42.3638C731.942 42.3638 732.507 42.2173 732.947 41.9243C733.394 41.6313 733.736 41.2367 733.972 40.7402C734.216 40.2357 734.387 39.6742 734.485 39.0557V36.8462C734.436 36.366 734.334 35.9185 734.18 35.5034C734.033 35.0884 733.834 34.7262 733.582 34.417C733.329 34.0996 733.012 33.8555 732.629 33.6846C732.247 33.5055 731.795 33.416 731.274 33.416C730.745 33.416 730.286 33.5299 729.895 33.7578C729.504 33.9857 729.183 34.299 728.931 34.6978C728.687 35.0965 728.503 35.5604 728.381 36.0894C728.259 36.6183 728.198 37.1839 728.198 37.7861ZM747.4 41.8511V35.5522C747.4 35.0802 747.314 34.6733 747.144 34.3315C746.973 33.9897 746.712 33.7253 746.362 33.5381C746.021 33.3509 745.589 33.2573 745.068 33.2573C744.588 33.2573 744.173 33.3387 743.823 33.5015C743.473 33.6642 743.201 33.884 743.005 34.1606C742.81 34.4373 742.712 34.7507 742.712 35.1006H739.783C739.783 34.5798 739.909 34.0752 740.161 33.5869C740.413 33.0986 740.78 32.6632 741.26 32.2808C741.74 31.8983 742.314 31.5972 742.981 31.3774C743.648 31.1577 744.397 31.0479 745.227 31.0479C746.22 31.0479 747.099 31.2147 747.864 31.5483C748.637 31.882 749.243 32.3866 749.683 33.062C750.13 33.7293 750.354 34.5675 750.354 35.5767V41.4482C750.354 42.0505 750.395 42.5916 750.476 43.0718C750.566 43.5438 750.692 43.9548 750.854 44.3047V44.5H747.839C747.701 44.1826 747.591 43.7798 747.51 43.2915C747.437 42.7951 747.4 42.3149 747.4 41.8511ZM747.827 36.4678L747.852 38.2866H745.74C745.194 38.2866 744.714 38.3395 744.299 38.4453C743.884 38.543 743.538 38.6895 743.262 38.8848C742.985 39.0801 742.778 39.3161 742.639 39.5928C742.501 39.8695 742.432 40.1828 742.432 40.5327C742.432 40.8826 742.513 41.2041 742.676 41.4971C742.839 41.7819 743.075 42.0057 743.384 42.1685C743.701 42.3312 744.084 42.4126 744.531 42.4126C745.133 42.4126 745.658 42.2905 746.106 42.0464C746.562 41.7941 746.92 41.4889 747.18 41.1309C747.441 40.7646 747.579 40.4188 747.595 40.0933L748.547 41.3994C748.45 41.7331 748.283 42.0911 748.047 42.4736C747.811 42.8561 747.502 43.2223 747.119 43.5723C746.745 43.9141 746.293 44.1948 745.764 44.4146C745.243 44.6343 744.641 44.7441 743.958 44.7441C743.095 44.7441 742.326 44.5732 741.65 44.2314C740.975 43.8815 740.446 43.4136 740.063 42.8276C739.681 42.2336 739.49 41.5622 739.49 40.8135C739.49 40.1136 739.62 39.4951 739.88 38.958C740.149 38.4128 740.54 37.957 741.052 37.5908C741.573 37.2246 742.208 36.9479 742.957 36.7607C743.705 36.5654 744.56 36.4678 745.52 36.4678H747.827ZM756.384 33.8066V44.5H753.442V31.292H756.25L756.384 33.8066ZM760.425 31.2065L760.4 33.9409C760.221 33.9084 760.026 33.884 759.814 33.8677C759.611 33.8514 759.408 33.8433 759.204 33.8433C758.7 33.8433 758.256 33.9165 757.874 34.063C757.491 34.2013 757.17 34.4048 756.909 34.6733C756.657 34.9338 756.462 35.2511 756.323 35.6255C756.185 35.9998 756.104 36.4189 756.079 36.8828L755.408 36.9316C755.408 36.1016 755.489 35.3325 755.652 34.6245C755.815 33.9165 756.059 33.2939 756.384 32.7568C756.718 32.2197 757.133 31.8006 757.629 31.4995C758.134 31.1984 758.716 31.0479 759.375 31.0479C759.554 31.0479 759.745 31.0641 759.949 31.0967C760.16 31.1292 760.319 31.1659 760.425 31.2065ZM771.448 33.8066V44.5H768.506V31.292H771.313L771.448 33.8066ZM775.488 31.2065L775.464 33.9409C775.285 33.9084 775.09 33.884 774.878 33.8677C774.674 33.8514 774.471 33.8433 774.268 33.8433C773.763 33.8433 773.319 33.9165 772.937 34.063C772.555 34.2013 772.233 34.4048 771.973 34.6733C771.72 34.9338 771.525 35.2511 771.387 35.6255C771.248 35.9998 771.167 36.4189 771.143 36.8828L770.471 36.9316C770.471 36.1016 770.553 35.3325 770.715 34.6245C770.878 33.9165 771.122 33.2939 771.448 32.7568C771.781 32.2197 772.196 31.8006 772.693 31.4995C773.197 31.1984 773.779 31.0479 774.438 31.0479C774.618 31.0479 774.809 31.0641 775.012 31.0967C775.224 31.1292 775.382 31.1659 775.488 31.2065ZM782.91 44.7441C781.934 44.7441 781.051 44.5854 780.261 44.2681C779.48 43.9425 778.813 43.4909 778.259 42.9131C777.714 42.3353 777.295 41.6558 777.002 40.8745C776.709 40.0933 776.562 39.251 776.562 38.3477V37.8594C776.562 36.8258 776.713 35.89 777.014 35.0518C777.315 34.2135 777.734 33.4974 778.271 32.9033C778.809 32.3011 779.443 31.8413 780.176 31.5239C780.908 31.2065 781.702 31.0479 782.556 31.0479C783.5 31.0479 784.326 31.2065 785.034 31.5239C785.742 31.8413 786.328 32.2889 786.792 32.8667C787.264 33.4364 787.614 34.1159 787.842 34.9053C788.078 35.6947 788.196 36.5654 788.196 37.5176V38.7749H777.991V36.6631H785.291V36.4312C785.274 35.9022 785.168 35.4058 784.973 34.9419C784.786 34.478 784.497 34.1037 784.106 33.8188C783.716 33.534 783.195 33.3916 782.544 33.3916C782.056 33.3916 781.62 33.4974 781.238 33.709C780.863 33.9124 780.55 34.2095 780.298 34.6001C780.046 34.9907 779.85 35.4627 779.712 36.0161C779.582 36.5614 779.517 37.1758 779.517 37.8594V38.3477C779.517 38.9255 779.594 39.4626 779.749 39.959C779.911 40.4473 780.147 40.8745 780.457 41.2407C780.766 41.6069 781.14 41.8958 781.58 42.1074C782.019 42.3109 782.52 42.4126 783.081 42.4126C783.789 42.4126 784.42 42.2702 784.973 41.9854C785.527 41.7005 786.007 41.2977 786.414 40.7769L787.964 42.2783C787.679 42.6934 787.309 43.0921 786.853 43.4746C786.397 43.849 785.84 44.1541 785.181 44.3901C784.53 44.6261 783.773 44.7441 782.91 44.7441ZM793.445 33.8311V49.5781H790.503V31.292H793.213L793.445 33.8311ZM802.051 37.7739V38.0303C802.051 38.9906 801.937 39.8817 801.709 40.7036C801.489 41.5174 801.16 42.2295 800.72 42.8398C800.289 43.4421 799.756 43.91 799.121 44.2437C798.486 44.5773 797.754 44.7441 796.924 44.7441C796.102 44.7441 795.382 44.5936 794.763 44.2925C794.153 43.9832 793.636 43.5479 793.213 42.9863C792.79 42.4248 792.448 41.7656 792.188 41.0088C791.935 40.2438 791.756 39.4056 791.65 38.4941V37.5054C791.756 36.5369 791.935 35.658 792.188 34.8687C792.448 34.0793 792.79 33.3997 793.213 32.8301C793.636 32.2604 794.153 31.821 794.763 31.5117C795.374 31.2025 796.086 31.0479 796.899 31.0479C797.729 31.0479 798.466 31.2106 799.109 31.5361C799.752 31.8535 800.293 32.3092 800.732 32.9033C801.172 33.4893 801.501 34.1973 801.721 35.0273C801.941 35.8493 802.051 36.7648 802.051 37.7739ZM799.109 38.0303V37.7739C799.109 37.1636 799.052 36.598 798.938 36.0771C798.824 35.5482 798.645 35.0843 798.401 34.6855C798.157 34.2868 797.843 33.9775 797.461 33.7578C797.087 33.5299 796.635 33.416 796.106 33.416C795.585 33.416 795.138 33.5055 794.763 33.6846C794.389 33.8555 794.076 34.0955 793.823 34.4048C793.571 34.714 793.376 35.0762 793.237 35.4912C793.099 35.8981 793.001 36.3416 792.944 36.8218V39.1899C793.042 39.7759 793.209 40.313 793.445 40.8013C793.681 41.2896 794.014 41.6802 794.446 41.9731C794.885 42.258 795.447 42.4004 796.13 42.4004C796.659 42.4004 797.111 42.2865 797.485 42.0586C797.86 41.8307 798.165 41.5174 798.401 41.1187C798.645 40.7118 798.824 40.2438 798.938 39.7148C799.052 39.1859 799.109 38.6243 799.109 38.0303ZM803.992 38.0425V37.7617C803.992 36.8096 804.13 35.9266 804.407 35.1128C804.683 34.2909 805.082 33.5788 805.603 32.9766C806.132 32.3662 806.775 31.8942 807.532 31.5605C808.297 31.2188 809.159 31.0479 810.12 31.0479C811.088 31.0479 811.951 31.2188 812.708 31.5605C813.472 31.8942 814.119 32.3662 814.648 32.9766C815.177 33.5788 815.58 34.2909 815.857 35.1128C816.134 35.9266 816.272 36.8096 816.272 37.7617V38.0425C816.272 38.9946 816.134 39.8776 815.857 40.6914C815.58 41.5052 815.177 42.2173 814.648 42.8276C814.119 43.4299 813.477 43.9019 812.72 44.2437C811.963 44.5773 811.104 44.7441 810.144 44.7441C809.176 44.7441 808.309 44.5773 807.544 44.2437C806.787 43.9019 806.144 43.4299 805.615 42.8276C805.086 42.2173 804.683 41.5052 804.407 40.6914C804.13 39.8776 803.992 38.9946 803.992 38.0425ZM806.934 37.7617V38.0425C806.934 38.6366 806.995 39.1981 807.117 39.7271C807.239 40.256 807.43 40.7199 807.69 41.1187C807.951 41.5174 808.285 41.8307 808.691 42.0586C809.098 42.2865 809.583 42.4004 810.144 42.4004C810.689 42.4004 811.161 42.2865 811.56 42.0586C811.967 41.8307 812.301 41.5174 812.561 41.1187C812.821 40.7199 813.013 40.256 813.135 39.7271C813.265 39.1981 813.33 38.6366 813.33 38.0425V37.7617C813.33 37.1758 813.265 36.6224 813.135 36.1016C813.013 35.5726 812.817 35.1047 812.549 34.6978C812.288 34.2909 811.955 33.9735 811.548 33.7456C811.149 33.5096 810.673 33.3916 810.12 33.3916C809.566 33.3916 809.086 33.5096 808.679 33.7456C808.28 33.9735 807.951 34.2909 807.69 34.6978C807.43 35.1047 807.239 35.5726 807.117 36.1016C806.995 36.6224 806.934 37.1758 806.934 37.7617ZM821.692 33.8066V44.5H818.75V31.292H821.558L821.692 33.8066ZM825.732 31.2065L825.708 33.9409C825.529 33.9084 825.334 33.884 825.122 33.8677C824.919 33.8514 824.715 33.8433 824.512 33.8433C824.007 33.8433 823.564 33.9165 823.181 34.063C822.799 34.2013 822.477 34.4048 822.217 34.6733C821.965 34.9338 821.769 35.2511 821.631 35.6255C821.493 35.9998 821.411 36.4189 821.387 36.8828L820.715 36.9316C820.715 36.1016 820.797 35.3325 820.959 34.6245C821.122 33.9165 821.366 33.2939 821.692 32.7568C822.026 32.2197 822.441 31.8006 822.937 31.4995C823.442 31.1984 824.023 31.0479 824.683 31.0479C824.862 31.0479 825.053 31.0641 825.256 31.0967C825.468 31.1292 825.627 31.1659 825.732 31.2065ZM834.241 31.292V33.4404H826.794V31.292H834.241ZM828.943 28.0571H831.885V40.8501C831.885 41.257 831.942 41.5703 832.056 41.79C832.178 42.0016 832.345 42.144 832.556 42.2173C832.768 42.2905 833.016 42.3271 833.301 42.3271C833.504 42.3271 833.7 42.3149 833.887 42.2905C834.074 42.2661 834.224 42.2417 834.338 42.2173L834.351 44.4634C834.106 44.5366 833.822 44.6017 833.496 44.6587C833.179 44.7157 832.812 44.7441 832.397 44.7441C831.722 44.7441 831.124 44.6261 830.603 44.3901C830.082 44.146 829.675 43.7513 829.382 43.2061C829.089 42.6608 828.943 41.9365 828.943 41.0332V28.0571ZM842.334 44.7441C841.357 44.7441 840.474 44.5854 839.685 44.2681C838.904 43.9425 838.236 43.4909 837.683 42.9131C837.138 42.3353 836.719 41.6558 836.426 40.8745C836.133 40.0933 835.986 39.251 835.986 38.3477V37.8594C835.986 36.8258 836.137 35.89 836.438 35.0518C836.739 34.2135 837.158 33.4974 837.695 32.9033C838.232 32.3011 838.867 31.8413 839.6 31.5239C840.332 31.2065 841.125 31.0479 841.98 31.0479C842.924 31.0479 843.75 31.2065 844.458 31.5239C845.166 31.8413 845.752 32.2889 846.216 32.8667C846.688 33.4364 847.038 34.1159 847.266 34.9053C847.502 35.6947 847.62 36.5654 847.62 37.5176V38.7749H837.415V36.6631H844.714V36.4312C844.698 35.9022 844.592 35.4058 844.397 34.9419C844.21 34.478 843.921 34.1037 843.53 33.8188C843.14 33.534 842.619 33.3916 841.968 33.3916C841.479 33.3916 841.044 33.4974 840.662 33.709C840.287 33.9124 839.974 34.2095 839.722 34.6001C839.469 34.9907 839.274 35.4627 839.136 36.0161C839.006 36.5614 838.94 37.1758 838.94 37.8594V38.3477C838.94 38.9255 839.018 39.4626 839.172 39.959C839.335 40.4473 839.571 40.8745 839.88 41.2407C840.19 41.6069 840.564 41.8958 841.003 42.1074C841.443 42.3109 841.943 42.4126 842.505 42.4126C843.213 42.4126 843.844 42.2702 844.397 41.9854C844.95 41.7005 845.431 41.2977 845.837 40.7769L847.388 42.2783C847.103 42.6934 846.733 43.0921 846.277 43.4746C845.821 43.849 845.264 44.1541 844.604 44.3901C843.953 44.6261 843.197 44.7441 842.334 44.7441ZM861.536 42.4004C862.016 42.4004 862.447 42.3068 862.83 42.1196C863.22 41.9243 863.534 41.6558 863.77 41.314C864.014 40.9722 864.148 40.5775 864.172 40.1299H866.943C866.927 40.9844 866.675 41.7616 866.187 42.4614C865.698 43.1613 865.051 43.7188 864.246 44.1338C863.44 44.5407 862.549 44.7441 861.572 44.7441C860.563 44.7441 859.684 44.5732 858.936 44.2314C858.187 43.8815 857.564 43.4014 857.068 42.791C856.571 42.1807 856.197 41.4767 855.945 40.6792C855.701 39.8817 855.579 39.0272 855.579 38.1157V37.6885C855.579 36.777 855.701 35.9225 855.945 35.125C856.197 34.3193 856.571 33.6113 857.068 33.001C857.564 32.3906 858.187 31.9146 858.936 31.5728C859.684 31.2228 860.559 31.0479 861.56 31.0479C862.618 31.0479 863.546 31.2594 864.343 31.6826C865.141 32.0977 865.767 32.6795 866.223 33.4282C866.687 34.1688 866.927 35.0314 866.943 36.0161H864.172C864.148 35.5278 864.026 35.0884 863.806 34.6978C863.595 34.299 863.293 33.9816 862.903 33.7456C862.52 33.5096 862.061 33.3916 861.523 33.3916C860.929 33.3916 860.437 33.5137 860.046 33.7578C859.656 33.9938 859.351 34.3193 859.131 34.7344C858.911 35.1413 858.752 35.6011 858.655 36.1138C858.565 36.6183 858.521 37.1432 858.521 37.6885V38.1157C858.521 38.661 858.565 39.1899 858.655 39.7026C858.744 40.2153 858.899 40.6751 859.119 41.082C859.347 41.4808 859.656 41.8022 860.046 42.0464C860.437 42.2824 860.933 42.4004 861.536 42.4004ZM868.64 38.0425V37.7617C868.64 36.8096 868.778 35.9266 869.055 35.1128C869.332 34.2909 869.731 33.5788 870.251 32.9766C870.78 32.3662 871.423 31.8942 872.18 31.5605C872.945 31.2188 873.808 31.0479 874.768 31.0479C875.736 31.0479 876.599 31.2188 877.356 31.5605C878.121 31.8942 878.768 32.3662 879.297 32.9766C879.826 33.5788 880.229 34.2909 880.505 35.1128C880.782 35.9266 880.92 36.8096 880.92 37.7617V38.0425C880.92 38.9946 880.782 39.8776 880.505 40.6914C880.229 41.5052 879.826 42.2173 879.297 42.8276C878.768 43.4299 878.125 43.9019 877.368 44.2437C876.611 44.5773 875.753 44.7441 874.792 44.7441C873.824 44.7441 872.957 44.5773 872.192 44.2437C871.436 43.9019 870.793 43.4299 870.264 42.8276C869.735 42.2173 869.332 41.5052 869.055 40.6914C868.778 39.8776 868.64 38.9946 868.64 38.0425ZM871.582 37.7617V38.0425C871.582 38.6366 871.643 39.1981 871.765 39.7271C871.887 40.256 872.078 40.7199 872.339 41.1187C872.599 41.5174 872.933 41.8307 873.34 42.0586C873.747 42.2865 874.231 42.4004 874.792 42.4004C875.338 42.4004 875.81 42.2865 876.208 42.0586C876.615 41.8307 876.949 41.5174 877.209 41.1187C877.47 40.7199 877.661 40.256 877.783 39.7271C877.913 39.1981 877.979 38.6366 877.979 38.0425V37.7617C877.979 37.1758 877.913 36.6224 877.783 36.1016C877.661 35.5726 877.466 35.1047 877.197 34.6978C876.937 34.2909 876.603 33.9735 876.196 33.7456C875.798 33.5096 875.321 33.3916 874.768 33.3916C874.215 33.3916 873.735 33.5096 873.328 33.7456C872.929 33.9735 872.599 34.2909 872.339 34.6978C872.078 35.1047 871.887 35.5726 871.765 36.1016C871.643 36.6224 871.582 37.1758 871.582 37.7617ZM886.328 33.9775V44.5H883.386V31.292H886.157L886.328 33.9775ZM885.852 37.4077L884.851 37.3955C884.851 36.484 884.965 35.6418 885.193 34.8687C885.421 34.0955 885.754 33.4242 886.194 32.8545C886.633 32.2767 887.179 31.8332 887.83 31.5239C888.489 31.2065 889.25 31.0479 890.112 31.0479C890.715 31.0479 891.264 31.1374 891.76 31.3164C892.265 31.4873 892.7 31.7599 893.066 32.1343C893.441 32.5086 893.726 32.9888 893.921 33.5747C894.124 34.1606 894.226 34.8687 894.226 35.6987V44.5H891.284V35.9551C891.284 35.3122 891.187 34.8076 890.991 34.4414C890.804 34.0752 890.531 33.8148 890.173 33.6602C889.823 33.4974 889.404 33.416 888.916 33.416C888.363 33.416 887.891 33.5218 887.5 33.7334C887.118 33.945 886.804 34.2339 886.56 34.6001C886.316 34.9663 886.137 35.3895 886.023 35.8696C885.909 36.3498 885.852 36.8625 885.852 37.4077ZM894.043 36.6265L892.664 36.9316C892.664 36.1341 892.773 35.3813 892.993 34.6733C893.221 33.9572 893.551 33.3306 893.982 32.7935C894.421 32.2482 894.963 31.821 895.605 31.5117C896.248 31.2025 896.985 31.0479 897.815 31.0479C898.49 31.0479 899.093 31.1414 899.622 31.3286C900.159 31.5076 900.614 31.7925 900.989 32.1831C901.363 32.5737 901.648 33.0824 901.843 33.709C902.039 34.3275 902.136 35.0762 902.136 35.9551V44.5H899.182V35.9429C899.182 35.2756 899.084 34.7588 898.889 34.3926C898.702 34.0264 898.433 33.7741 898.083 33.6357C897.734 33.4893 897.314 33.416 896.826 33.416C896.37 33.416 895.968 33.5015 895.618 33.6724C895.276 33.8351 894.987 34.0671 894.751 34.3682C894.515 34.6611 894.336 34.9989 894.214 35.3813C894.1 35.7638 894.043 36.1789 894.043 36.6265ZM908.118 33.8311V49.5781H905.176V31.292H907.886L908.118 33.8311ZM916.724 37.7739V38.0303C916.724 38.9906 916.61 39.8817 916.382 40.7036C916.162 41.5174 915.833 42.2295 915.393 42.8398C914.962 43.4421 914.429 43.91 913.794 44.2437C913.159 44.5773 912.427 44.7441 911.597 44.7441C910.775 44.7441 910.055 44.5936 909.436 44.2925C908.826 43.9832 908.309 43.5479 907.886 42.9863C907.463 42.4248 907.121 41.7656 906.86 41.0088C906.608 40.2438 906.429 39.4056 906.323 38.4941V37.5054C906.429 36.5369 906.608 35.658 906.86 34.8687C907.121 34.0793 907.463 33.3997 907.886 32.8301C908.309 32.2604 908.826 31.821 909.436 31.5117C910.046 31.2025 910.758 31.0479 911.572 31.0479C912.402 31.0479 913.139 31.2106 913.782 31.5361C914.425 31.8535 914.966 32.3092 915.405 32.9033C915.845 33.4893 916.174 34.1973 916.394 35.0273C916.614 35.8493 916.724 36.7648 916.724 37.7739ZM913.782 38.0303V37.7739C913.782 37.1636 913.725 36.598 913.611 36.0771C913.497 35.5482 913.318 35.0843 913.074 34.6855C912.83 34.2868 912.516 33.9775 912.134 33.7578C911.759 33.5299 911.308 33.416 910.779 33.416C910.258 33.416 909.81 33.5055 909.436 33.6846C909.062 33.8555 908.748 34.0955 908.496 34.4048C908.244 34.714 908.049 35.0762 907.91 35.4912C907.772 35.8981 907.674 36.3416 907.617 36.8218V39.1899C907.715 39.7759 907.882 40.313 908.118 40.8013C908.354 41.2896 908.687 41.6802 909.119 41.9731C909.558 42.258 910.12 42.4004 910.803 42.4004C911.332 42.4004 911.784 42.2865 912.158 42.0586C912.533 41.8307 912.838 41.5174 913.074 41.1187C913.318 40.7118 913.497 40.2438 913.611 39.7148C913.725 39.1859 913.782 38.6243 913.782 38.0303ZM922.375 25.75V44.5H919.421V25.75H922.375ZM931.421 44.7441C930.444 44.7441 929.561 44.5854 928.772 44.2681C927.991 43.9425 927.323 43.4909 926.77 42.9131C926.225 42.3353 925.806 41.6558 925.513 40.8745C925.22 40.0933 925.073 39.251 925.073 38.3477V37.8594C925.073 36.8258 925.224 35.89 925.525 35.0518C925.826 34.2135 926.245 33.4974 926.782 32.9033C927.319 32.3011 927.954 31.8413 928.687 31.5239C929.419 31.2065 930.212 31.0479 931.067 31.0479C932.011 31.0479 932.837 31.2065 933.545 31.5239C934.253 31.8413 934.839 32.2889 935.303 32.8667C935.775 33.4364 936.125 34.1159 936.353 34.9053C936.589 35.6947 936.707 36.5654 936.707 37.5176V38.7749H926.501V36.6631H933.801V36.4312C933.785 35.9022 933.679 35.4058 933.484 34.9419C933.297 34.478 933.008 34.1037 932.617 33.8188C932.227 33.534 931.706 33.3916 931.055 33.3916C930.566 33.3916 930.131 33.4974 929.749 33.709C929.374 33.9124 929.061 34.2095 928.809 34.6001C928.556 34.9907 928.361 35.4627 928.223 36.0161C928.092 36.5614 928.027 37.1758 928.027 37.8594V38.3477C928.027 38.9255 928.105 39.4626 928.259 39.959C928.422 40.4473 928.658 40.8745 928.967 41.2407C929.277 41.6069 929.651 41.8958 930.09 42.1074C930.53 42.3109 931.03 42.4126 931.592 42.4126C932.3 42.4126 932.931 42.2702 933.484 41.9854C934.037 41.7005 934.517 41.2977 934.924 40.7769L936.475 42.2783C936.19 42.6934 935.819 43.0921 935.364 43.4746C934.908 43.849 934.351 44.1541 933.691 44.3901C933.04 44.6261 932.284 44.7441 931.421 44.7441ZM945.056 31.292V33.4404H937.61V31.292H945.056ZM939.758 28.0571H942.7V40.8501C942.7 41.257 942.757 41.5703 942.871 41.79C942.993 42.0016 943.16 42.144 943.372 42.2173C943.583 42.2905 943.831 42.3271 944.116 42.3271C944.32 42.3271 944.515 42.3149 944.702 42.2905C944.889 42.2661 945.04 42.2417 945.154 42.2173L945.166 44.4634C944.922 44.5366 944.637 44.6017 944.312 44.6587C943.994 44.7157 943.628 44.7441 943.213 44.7441C942.537 44.7441 941.939 44.6261 941.418 44.3901C940.898 44.146 940.491 43.7513 940.198 43.2061C939.905 42.6608 939.758 41.9365 939.758 41.0332V28.0571ZM946.472 38.0425V37.7617C946.472 36.8096 946.611 35.9266 946.887 35.1128C947.164 34.2909 947.563 33.5788 948.083 32.9766C948.612 32.3662 949.255 31.8942 950.012 31.5605C950.777 31.2188 951.64 31.0479 952.6 31.0479C953.569 31.0479 954.431 31.2188 955.188 31.5605C955.953 31.8942 956.6 32.3662 957.129 32.9766C957.658 33.5788 958.061 34.2909 958.337 35.1128C958.614 35.9266 958.752 36.8096 958.752 37.7617V38.0425C958.752 38.9946 958.614 39.8776 958.337 40.6914C958.061 41.5052 957.658 42.2173 957.129 42.8276C956.6 43.4299 955.957 43.9019 955.2 44.2437C954.443 44.5773 953.585 44.7441 952.625 44.7441C951.656 44.7441 950.789 44.5773 950.024 44.2437C949.268 43.9019 948.625 43.4299 948.096 42.8276C947.567 42.2173 947.164 41.5052 946.887 40.6914C946.611 39.8776 946.472 38.9946 946.472 38.0425ZM949.414 37.7617V38.0425C949.414 38.6366 949.475 39.1981 949.597 39.7271C949.719 40.256 949.91 40.7199 950.171 41.1187C950.431 41.5174 950.765 41.8307 951.172 42.0586C951.579 42.2865 952.063 42.4004 952.625 42.4004C953.17 42.4004 953.642 42.2865 954.041 42.0586C954.447 41.8307 954.781 41.5174 955.042 41.1187C955.302 40.7199 955.493 40.256 955.615 39.7271C955.745 39.1981 955.811 38.6366 955.811 38.0425V37.7617C955.811 37.1758 955.745 36.6224 955.615 36.1016C955.493 35.5726 955.298 35.1047 955.029 34.6978C954.769 34.2909 954.435 33.9735 954.028 33.7456C953.63 33.5096 953.153 33.3916 952.6 33.3916C952.047 33.3916 951.567 33.5096 951.16 33.7456C950.761 33.9735 950.431 34.2909 950.171 34.6978C949.91 35.1047 949.719 35.5726 949.597 36.1016C949.475 36.6224 949.414 37.1758 949.414 37.7617Z" fill="#030303"/>
<defs>
<linearGradient id="paint0_linear_3092_8140" x1="593.938" y1="28.2702" x2="609.213" y2="43.5452" gradientUnits="userSpaceOnUse">
<stop stop-color="#18884F"/>
<stop offset="1" stop-color="#0B6731"/>
</linearGradient>
</defs>
</svg>
