<svg width="36" height="35" viewBox="0 0 36 35" fill="none" xmlns="http://www.w3.org/2000/svg">
<path fill-rule="evenodd" clip-rule="evenodd" d="M2.6875 17.5C2.6875 21.5611 4.30078 25.4559 7.17243 28.3276C10.0441 31.1992 13.9389 32.8125 18 32.8125C22.0611 32.8125 25.9559 31.1992 28.8276 28.3276C31.6992 25.4559 33.3125 21.5611 33.3125 17.5C33.3125 13.4389 31.6992 9.54408 28.8276 6.67243C25.9559 3.80078 22.0611 2.1875 18 2.1875C13.9389 2.1875 10.0441 3.80078 7.17243 6.67243C4.30078 9.54408 2.6875 13.4389 2.6875 17.5ZM35.5 17.5C35.5 22.1413 33.6563 26.5925 30.3744 29.8744C27.0925 33.1563 22.6413 35 18 35C13.3587 35 8.90752 33.1563 5.62563 29.8744C2.34374 26.5925 0.5 22.1413 0.5 17.5C0.5 12.8587 2.34374 8.40752 5.62563 5.12563C8.90752 1.84374 13.3587 0 18 0C22.6413 0 27.0925 1.84374 30.3744 5.12563C33.6563 8.40752 35.5 12.8587 35.5 17.5ZM19.0938 9.84375C19.0938 9.55367 18.9785 9.27547 18.7734 9.07035C18.5683 8.86523 18.2901 8.75 18 8.75C17.7099 8.75 17.4317 8.86523 17.2266 9.07035C17.0215 9.27547 16.9062 9.55367 16.9062 9.84375V22.5159L12.2119 17.8194C12.0065 17.614 11.7279 17.4986 11.4375 17.4986C11.1471 17.4986 10.8685 17.614 10.6631 17.8194C10.4577 18.0248 10.3424 18.3033 10.3424 18.5938C10.3424 18.8842 10.4577 19.1627 10.6631 19.3681L17.2256 25.9306C17.3272 26.0325 17.4479 26.1133 17.5808 26.1684C17.7137 26.2236 17.8561 26.252 18 26.252C18.1439 26.252 18.2863 26.2236 18.4192 26.1684C18.5521 26.1133 18.6728 26.0325 18.7744 25.9306L25.3369 19.3681C25.5423 19.1627 25.6576 18.8842 25.6576 18.5938C25.6576 18.3033 25.5423 18.0248 25.3369 17.8194C25.1315 17.614 24.8529 17.4986 24.5625 17.4986C24.2721 17.4986 23.9935 17.614 23.7881 17.8194L19.0938 22.5159V9.84375Z" fill="white"/>
</svg>
